<?xml version="1.0" encoding="utf-8"?>
<!-- Generator: Adobe Illustrator 23.0.0, SVG Export Plug-In . SVG Version: 6.00 Build 0)  -->
<svg version="1.1" id="Layer_1" xmlns="http://www.w3.org/2000/svg" xmlns:xlink="http://www.w3.org/1999/xlink" x="0px" y="0px"
	 viewBox="0 0 1000 1000" style="enable-background:new 0 0 1000 1000;" xml:space="preserve">
<style type="text/css">
	.st0{fill:#FFFFFF;}
</style>
<path class="st0" d="M781.9,930.5c-59.7,1-110.6-21.3-156-58.3c-15-12.2-29.7-24.8-45.5-35.9c-50.4-35.5-110.5-35.7-160.7-0.3
	c-21,14.8-40.4,31.9-60.9,47.4c-52.1,39.4-111.5,55.3-175.4,44.8C88.3,912.5,29.6,825.8,44.6,729.1c6.9-44.8,26.7-84.4,47.5-123.8
	c67.2-127.2,133.5-254.9,202-381.4c17.7-32.6,39.5-63.8,63.9-91.8c70.9-81.4,218.7-85,292.8,10c31.7,40.7,57,86.9,81.6,132.5
	c65.5,121.5,129.3,243.8,193.3,366.1c25.8,49.4,38.8,101.6,27,157.6C935.7,879.4,869.3,930.6,781.9,930.5z M295.8,573.4
	c1,1,1.9,2,2.9,3.1c8.3-3.7,16.3-8.6,25-10.9c21.8-5.8,33-20.8,42.9-40c52.4-101.4,106.2-202.1,159.3-303.2
	c7.7-14.8,17.3-26.1,35.5-26c17.6,0.1,28.1,9.6,36.2,24.9c35.2,66.1,71.6,131.5,106.6,197.7c48.1,91,95.6,182.3,143,273.8
	c18.8,36.2,31.6,74.8,18.9,115.2c-8.4,26.5-23.6,50.9-35,74.5c36.8-2.6,73.7-39.7,81.4-83.9c7.5-43-5.6-81.7-24.9-118.6
	c-64.2-122.7-128.7-245.3-193.8-367.6c-22.5-42.4-44.7-85.2-71-125.3c-31.9-48.7-86.2-48.4-121.3-2c-5.6,7.4-10.5,15.5-14.8,23.8
	c-41.2,78.4-82.3,156.9-123.4,235.4C340.7,487.2,318.3,530.3,295.8,573.4z M563.5,311.2c-25.7,37.8-25.5,37.7-6.3,73.6
	c40.1,74.8,80.1,149.6,119.8,224.5c23.7,44.6,46.8,89.5,70,134.4c12.2,23.6,10.4,41.9-5,54.1c-15.2,12-32.3,10.2-52.6-5.4
	c-8.4-6.5-16.8-13-25.5-19c-109.9-76.7-220.7-76.1-329.8,2c-20.8,14.9-40.2,32-62.2,44.9c-57.2,33.5-114.8,33.4-171-3.8
	c-2.6-1.7-5.5-3.1-11.3-6.2c15.6,42.5,42,67.4,83.2,74.4c48,8.1,91.6-4.4,130.7-32.5c15.7-11.3,30.2-24.1,45.3-36.2
	c95.6-76.7,198.8-78,296.4-4.1c13.9,10.5,27.8,21.8,43.4,28.9c51,23.1,106.5-8.5,107.8-62.1c0.4-17.1-6.3-35.7-14.3-51.4
	c-44.3-87.3-89.8-174-135.4-260.7C620.1,415.3,592.3,364.5,563.5,311.2z M448.4,124.5c-0.4-1-0.8-2-1.2-3.1
	c-16.5,12.9-35.1,23.9-49,39.1c-16.7,18.3-31.6,38.9-43.3,60.7C279.6,361.3,205.3,502,131.1,642.7c-5.7,10.9-9.7,23.1-12.5,35.1
	c-12.6,55.1,25,99.5,80.1,92.5c15.9-2,31.8-10.5,45.7-19.4c24.6-15.8,47-35.2,71.5-51.1c70.7-45.8,148.1-65,231.9-52.1
	c25.3,3.9,50,12.2,77.2,19c-5.9-11-11.9-19.8-15.5-29.6c-5.8-15.9-16.9-23.1-32.8-26.5c-50.1-10.8-100.1-12.4-150.4-2.2
	C350.2,624,286.8,664.3,227,711.4c-24.9,19.7-40.8,22.1-56.9,8.9c-16.1-13.2-17-30.4-3.1-57.4c0.6-1.1,1.3-2.1,1.9-3.3
	C261.9,481.2,355.2,302.8,448.4,124.5z M498.2,378.6c-37.7,71.7-71.4,135.8-107,203.4c73.7,0,142.2,0,216.1,0
	C571.1,514.4,536.5,449.8,498.2,378.6z"/>
</svg>
