<?xml version="1.0" encoding="utf-8"?>
<!-- Generator: Adobe Illustrator 23.0.0, SVG Export Plug-In . SVG Version: 6.00 Build 0)  -->
<svg version="1.1" id="Layer_1" xmlns="http://www.w3.org/2000/svg" xmlns:xlink="http://www.w3.org/1999/xlink" x="0px" y="0px"
	 viewBox="0 0 1000 1000" style="enable-background:new 0 0 1000 1000;" xml:space="preserve">
<style type="text/css">
	.st0{fill:#FFFFFF;}
</style>
<g>
	<g>
		<g>
			<path class="st0" d="M529.2,25.9c-61.3,0-112.9,51.7-112.9,112.9s51.7,112.9,112.9,112.9s111.1-51.7,111.1-112.9
				S590.4,25.9,529.2,25.9z"/>
		</g>
	</g>
	<g>
		<g>
			<path class="st0" d="M659.5,247.1c-31,33.8-75.4,55.5-125.3,55.5s-96.1-21.7-127.1-55.5c-27.1,29.5-44,68.2-44,111.1v27.8
				c0,15.3,12.4,27.8,27.8,27.8h284.9c15.3,0,27.8-12.4,27.8-27.8v-27.8C703.6,315.3,686.6,276.6,659.5,247.1z"/>
		</g>
	</g>
	<g>
		<g>
			<path class="st0" d="M295.7,878.3L154.2,594.6c-13.7-27.4-46.9-38.6-74.4-25l-37,18.3c-13.8,6.8-19.4,23.6-12.5,37.3L197,958.4
				c6.9,13.7,23.5,19.2,37.2,12.5l36.5-18.1C298.2,939.2,309.5,905.8,295.7,878.3z"/>
		</g>
	</g>
	<g>
		<g>
			<path class="st0" d="M949.6,490c-22.5-16.5-53.8-13.2-72.5,7.1L727,681.7c-10.4,11-30.2,17.6-40.6,17.6H559.1
				c-16.3,0-30.6-13.3-29.4-29.6c1-14.4,12.7-25.4,27.4-25.4c36.8,0,107.6,0,107.6,0c28.9,0,54.9-20.9,57.6-49.6
				c3.1-32.5-22.7-60.2-54.7-60.2c-128.9,0-8.3,0-146.2,0c-13.7,0-20.5-8.7-31.3-18.1c-42.5-38.2-106.1-56.6-170.4-41.7
				c-35.7,8.3-59.8,22.7-84.3,42.1l-0.8-0.7L194.9,551L350.9,864h49.2h268.1c51.6,0,101-24.7,131.8-65.9l161.1-230.6
				C979.2,543.3,974.3,508.2,949.6,490z"/>
		</g>
	</g>
	<g>
	</g>
	<g>
	</g>
	<g>
	</g>
	<g>
	</g>
	<g>
	</g>
	<g>
	</g>
	<g>
	</g>
	<g>
	</g>
	<g>
	</g>
	<g>
	</g>
	<g>
	</g>
	<g>
	</g>
	<g>
	</g>
	<g>
	</g>
	<g>
	</g>
</g>
</svg>
