<?xml version="1.0" encoding="utf-8"?>
<!-- Generator: Adobe Illustrator 23.0.0, SVG Export Plug-In . SVG Version: 6.00 Build 0)  -->
<svg version="1.1" id="Layer_1" xmlns="http://www.w3.org/2000/svg" xmlns:xlink="http://www.w3.org/1999/xlink" x="0px" y="0px"
	 viewBox="0 0 840 328" style="enable-background:new 0 0 840 328;" xml:space="preserve">
<style type="text/css">
	.st0{fill:#FFFFFF;}
</style>
<path class="st0" d="M169.1,189.9c-11.7,0.2-21.7-4.2-30.6-11.4c-2.9-2.4-5.8-4.9-8.9-7c-9.9-7-21.7-7-31.5-0.1
	c-4.1,2.9-7.9,6.3-11.9,9.3c-10.2,7.7-21.9,10.8-34.4,8.8c-18.7-3.1-30.2-20.1-27.2-39.1c1.4-8.8,5.2-16.6,9.3-24.3
	c13.2-24.9,26.2-50,39.6-74.8c3.5-6.4,7.7-12.5,12.5-18c13.9-16,42.9-16.7,57.4,2c6.2,8,11.2,17,16,26
	c12.9,23.8,25.4,47.8,37.9,71.8c5.1,9.7,7.6,19.9,5.3,30.9C199.2,179.9,186.2,189.9,169.1,189.9z M73.7,119.9
	c0.2,0.2,0.4,0.4,0.6,0.6c1.6-0.7,3.2-1.7,4.9-2.1c4.3-1.1,6.5-4.1,8.4-7.9c10.3-19.9,20.8-39.6,31.2-59.5c1.5-2.9,3.4-5.1,7-5.1
	c3.5,0,5.5,1.9,7.1,4.9c6.9,13,14,25.8,20.9,38.8c9.4,17.8,18.8,35.8,28,53.7c3.7,7.1,6.2,14.7,3.7,22.6c-1.6,5.2-4.6,10-6.9,14.6
	c7.2-0.5,14.5-7.8,16-16.5c1.5-8.4-1.1-16-4.9-23.3c-12.6-24.1-25.3-48.1-38-72.1c-4.4-8.3-8.8-16.7-13.9-24.6
	c-6.3-9.6-16.9-9.5-23.8-0.4c-1.1,1.5-2.1,3-2.9,4.7C103.1,63.7,95,79.1,86.9,94.5C82.5,103,78.1,111.4,73.7,119.9z M126.2,68.4
	c-5,7.4-5,7.4-1.2,14.4c7.9,14.7,15.7,29.3,23.5,44c4.6,8.8,9.2,17.6,13.7,26.4c2.4,4.6,2,8.2-1,10.6c-3,2.4-6.3,2-10.3-1.1
	c-1.6-1.3-3.3-2.5-5-3.7c-21.6-15-43.3-14.9-64.7,0.4c-4.1,2.9-7.9,6.3-12.2,8.8c-11.2,6.6-22.5,6.5-33.5-0.7
	c-0.5-0.3-1.1-0.6-2.2-1.2c3.1,8.3,8.2,13.2,16.3,14.6c9.4,1.6,18-0.9,25.6-6.4c3.1-2.2,5.9-4.7,8.9-7.1c18.7-15,39-15.3,58.1-0.8
	c2.7,2.1,5.5,4.3,8.5,5.7c10,4.5,20.9-1.7,21.1-12.2c0.1-3.3-1.2-7-2.8-10.1c-8.7-17.1-17.6-34.1-26.6-51.1
	C137.3,88.8,131.9,78.9,126.2,68.4z M103.6,31.8c-0.1-0.2-0.2-0.4-0.2-0.6c-3.2,2.5-6.9,4.7-9.6,7.7c-3.3,3.6-6.2,7.6-8.5,11.9
	C70.5,78.3,56,105.9,41.4,133.5c-1.1,2.1-1.9,4.5-2.5,6.9c-2.5,10.8,4.9,19.5,15.7,18.1c3.1-0.4,6.2-2.1,9-3.8
	c4.8-3.1,9.2-6.9,14-10c13.9-9,29-12.7,45.5-10.2c5,0.8,9.8,2.4,15.1,3.7c-1.1-2.2-2.3-3.9-3-5.8c-1.1-3.1-3.3-4.5-6.4-5.2
	c-9.8-2.1-19.6-2.4-29.5-0.4c-14.9,3-27.4,10.9-39.1,20.2c-4.9,3.9-8,4.3-11.2,1.7c-3.2-2.6-3.3-6-0.6-11.3c0.1-0.2,0.3-0.4,0.4-0.6
	C67.1,101.8,85.4,66.8,103.6,31.8z M113.4,81.6c-7.4,14.1-14,26.6-21,39.9c14.5,0,27.9,0,42.4,0C127.7,108.3,120.9,95.6,113.4,81.6z
	"/>
<g>
	<path class="st0" d="M352.9,137.1l-9.9-22.9h-45.7l-9.7,22.9h-5.2l35.5-82.6h4.8l35.5,82.6H352.9z M299.3,109.6H341l-20.9-48.7
		L299.3,109.6z"/>
	<path class="st0" d="M427.8,101.8c2.6,3.4,3.9,7.8,3.9,12.9c0,7.3-2.3,12.9-6.9,16.7c-4.6,3.8-11.2,5.7-19.8,5.7h-31.8V54.5h30.5
		c8.4,0,14.8,1.9,19.3,5.6c4.5,3.7,6.8,9.1,6.8,16.1c0,4.5-1.1,8.3-3.4,11.5c-2.3,3.2-5.5,5.5-9.7,7.1
		C421.5,96,425.2,98.4,427.8,101.8z M378.2,92.8h25.1c7,0,12.4-1.5,16-4.4c3.6-2.9,5.5-7.2,5.5-12.9c0-11-7.2-16.5-21.5-16.5h-25.1
		V92.8z M421.3,128.4c3.5-2.8,5.3-7.2,5.3-13.1c0-11.8-7.2-17.7-21.6-17.7h-26.8v35H405C412.3,132.6,417.7,131.2,421.3,128.4z"/>
	<path class="st0" d="M513.2,137.1l-9.9-22.9h-45.7l-9.7,22.9h-5.2l35.5-82.6h4.8l35.5,82.6H513.2z M459.6,109.6h41.8l-20.9-48.7
		L459.6,109.6z"/>
	<path class="st0" d="M595.8,137.1h-5l-10.1-27.5c-1.5-4-3.4-6.7-5.9-8.1c-2.4-1.4-6.1-2-10.8-2h-25.6v37.6h-4.8V54.5h30.7
		c8.5,0,15.1,1.9,19.7,5.7c4.6,3.8,7,9.3,7,16.5c0,5.3-1.4,9.8-4.2,13.3c-2.8,3.6-6.8,6-12,7.4c2.4,0.4,4.4,1.4,6.1,3.1
		c1.7,1.7,3.1,4.1,4.2,7.3L595.8,137.1z M564.5,94.9c7,0,12.4-1.5,16-4.6c3.6-3.1,5.4-7.6,5.4-13.6c0-11.8-7.1-17.6-21.3-17.6h-26
		v35.8H564.5z"/>
	<path class="st0" d="M675.1,137.1h-5L660,109.6c-1.5-4-3.4-6.7-5.9-8.1c-2.4-1.4-6.1-2-10.8-2h-25.6v37.6h-4.8V54.5h30.7
		c8.5,0,15.1,1.9,19.7,5.7c4.6,3.8,7,9.3,7,16.5c0,5.3-1.4,9.8-4.2,13.3c-2.8,3.6-6.8,6-12,7.4c2.4,0.4,4.4,1.4,6.1,3.1
		c1.7,1.7,3.1,4.1,4.2,7.3L675.1,137.1z M643.8,94.9c7,0,12.4-1.5,16-4.6c3.6-3.1,5.4-7.6,5.4-13.6c0-11.8-7.1-17.6-21.3-17.6h-26
		v35.8H643.8z"/>
	<path class="st0" d="M755.1,137.1l-9.9-22.9h-45.7l-9.7,22.9h-5.2L720,54.5h4.8l35.5,82.6H755.1z M701.5,109.6h41.8l-20.9-48.7
		L701.5,109.6z"/>
	<path class="st0" d="M782.8,135.4c-4.8-1.8-9.2-4.6-13.1-8.5l2.4-4.1c4.1,3.8,8.2,6.5,12.4,8.1c4.2,1.6,9.2,2.4,15.2,2.4
		c7.3,0,13.1-1.6,17.1-4.7c4.1-3.1,6.1-7.5,6.1-13.2c0-3.2-1-5.9-3-7.9c-2-2-4.5-3.6-7.5-4.6c-3-1-6.9-2.1-11.9-3.3
		c-6.6-1.5-11.7-3-15.4-4.3c-3.7-1.3-6.9-3.5-9.8-6.5c-2.9-3-4.3-7.1-4.3-12.3c0-4.6,1.2-8.6,3.5-12c2.3-3.4,5.6-6.1,9.9-8
		c4.3-1.9,9.3-2.8,15.1-2.8c11.4,0,20.7,3.7,27.7,11.1l-2.4,4.1c-3.9-3.6-7.9-6.3-11.9-7.9c-4-1.7-8.5-2.5-13.3-2.5
		c-7.4,0-13.2,1.6-17.3,4.8c-4.1,3.2-6.2,7.7-6.2,13.5c0,5,1.8,8.6,5.4,11c3.6,2.4,8.6,4.4,15.1,6l5.2,1.3
		c5.6,1.3,10.2,2.6,13.7,3.9c3.5,1.3,6.4,3.3,8.9,6c2.4,2.7,3.7,6.3,3.7,10.9c0,4.3-1.2,8.2-3.5,11.5c-2.3,3.4-5.6,6-9.9,7.9
		c-4.3,1.9-9.3,2.8-14.9,2.8C793.3,138.1,787.7,137.2,782.8,135.4z"/>
</g>
<g>
	<path class="st0" d="M40.8,303.3v-33.4h1.9v33.4H40.8z"/>
	<path class="st0" d="M70.1,288.2v15.1h-2v-14.9c0-2.5-0.5-4.3-1.5-5.5c-1-1.2-2.6-1.7-4.9-1.7c-2.5,0-4.6,0.8-6.1,2.3
		s-2.3,3.6-2.3,6.2v13.7h-1.9v-17c0-2.4-0.1-4.6-0.4-6.5h1.9l0.3,4.5c0.7-1.6,1.7-2.9,3.2-3.7c1.5-0.9,3.2-1.3,5.1-1.3
		C67.2,279.2,70.1,282.2,70.1,288.2z"/>
	<path class="st0" d="M81.1,281.5v15c0,2,0.4,3.4,1.1,4.1c0.7,0.7,1.8,1.1,3.3,1.1c0.9,0,1.8-0.1,2.6-0.4v1.9
		c-0.9,0.3-1.9,0.4-2.8,0.4c-1.9,0-3.4-0.5-4.5-1.6s-1.7-2.7-1.7-4.9v-15.6h-4.7v-1.7h4.7v-6.4l2-0.8v7.2h7.1v1.7H81.1z"/>
	<path class="st0" d="M94,291v0.4c0,3.3,0.8,5.8,2.3,7.6c1.5,1.8,3.8,2.7,6.6,2.7c1.5,0,2.8-0.2,4.1-0.7c1.3-0.5,2.6-1.3,3.8-2.3
		l0.9,1.7c-1,1-2.3,1.8-3.9,2.4c-1.6,0.6-3.2,0.9-4.9,0.9c-3.5,0-6.2-1.1-8.2-3.2c-2-2.2-3-5.1-3-8.9c0-2.4,0.5-4.5,1.4-6.4
		c0.9-1.8,2.2-3.3,3.8-4.3s3.5-1.5,5.7-1.5c3,0,5.4,1,7.1,3c1.7,2,2.6,4.7,2.6,8.3v0.6H94z M97,283.2c-1.5,1.4-2.4,3.4-2.8,5.9h16.2
		c-0.2-2.6-0.9-4.6-2.3-6c-1.3-1.4-3.1-2.1-5.4-2.1C100.3,281,98.4,281.7,97,283.2z"/>
	<path class="st0" d="M118.8,303.3v-34.6h1.9v34.6H118.8z"/>
	<path class="st0" d="M128.5,270.4h3.1v3h-3.1V270.4z M129.1,303.3v-23.5h1.9v23.5H129.1z"/>
	<path class="st0" d="M158.6,279.8v23.8c0,3.3-0.8,5.9-2.4,7.6c-1.6,1.7-3.9,2.6-7,2.6c-3.5,0-6.5-0.9-9-2.6l0.4-1.9
		c1.6,0.9,3,1.6,4.2,2c1.3,0.4,2.7,0.6,4.5,0.6c2.4,0,4.2-0.7,5.5-2c1.3-1.4,1.9-3.3,1.9-5.9v-6.4c-0.7,1.7-1.8,3-3.2,3.9
		c-1.4,0.9-3.2,1.3-5.2,1.3c-2.1,0-3.9-0.5-5.5-1.5s-2.8-2.4-3.7-4.1c-0.9-1.8-1.3-3.8-1.3-6.1s0.4-4.3,1.3-6.1
		c0.9-1.8,2.1-3.1,3.7-4.1c1.6-1,3.4-1.5,5.5-1.5c2,0,3.7,0.4,5.1,1.3c1.4,0.8,2.5,2.1,3.2,3.7v-4.4H158.6z M154.4,298
		c1.5-1.7,2.2-4.1,2.2-7.1c0-3-0.7-5.4-2.2-7.1c-1.5-1.7-3.5-2.6-6.1-2.6c-2.6,0-4.7,0.9-6.2,2.6c-1.5,1.7-2.3,4.1-2.3,7.1
		s0.8,5.4,2.3,7.1c1.5,1.7,3.6,2.6,6.2,2.6C150.9,300.6,152.9,299.7,154.4,298z"/>
	<path class="st0" d="M167.5,291v0.4c0,3.3,0.8,5.8,2.3,7.6c1.5,1.8,3.8,2.7,6.6,2.7c1.5,0,2.8-0.2,4.1-0.7c1.3-0.5,2.6-1.3,3.8-2.3
		l0.9,1.7c-1,1-2.3,1.8-3.9,2.4c-1.6,0.6-3.2,0.9-4.9,0.9c-3.5,0-6.2-1.1-8.2-3.2c-2-2.2-3-5.1-3-8.9c0-2.4,0.5-4.5,1.4-6.4
		c0.9-1.8,2.2-3.3,3.8-4.3s3.5-1.5,5.7-1.5c3,0,5.4,1,7.1,3c1.7,2,2.6,4.7,2.6,8.3v0.6H167.5z M170.4,283.2
		c-1.5,1.4-2.4,3.4-2.8,5.9h16.2c-0.2-2.6-0.9-4.6-2.3-6c-1.3-1.4-3.1-2.1-5.4-2.1C173.8,281,171.9,281.7,170.4,283.2z"/>
	<path class="st0" d="M210.9,288.2v15.1h-2v-14.9c0-2.5-0.5-4.3-1.5-5.5c-1-1.2-2.6-1.7-4.9-1.7c-2.5,0-4.6,0.8-6.1,2.3
		s-2.3,3.6-2.3,6.2v13.7h-1.9v-17c0-2.4-0.1-4.6-0.4-6.5h1.9l0.3,4.5c0.7-1.6,1.7-2.9,3.2-3.7c1.5-0.9,3.2-1.3,5.1-1.3
		C208.1,279.2,210.9,282.2,210.9,288.2z"/>
	<path class="st0" d="M222.5,302.1c-1.6-1-2.9-2.4-3.8-4.3c-0.9-1.8-1.3-4-1.3-6.4s0.4-4.5,1.3-6.4c0.9-1.9,2.2-3.3,3.8-4.3
		c1.6-1,3.5-1.5,5.7-1.5c1.6,0,3.1,0.3,4.5,0.8s2.6,1.3,3.5,2.3l-0.9,1.7c-1.3-1-2.5-1.8-3.6-2.3c-1.1-0.5-2.3-0.7-3.5-0.7
		c-2.7,0-4.8,0.9-6.4,2.8c-1.5,1.9-2.3,4.4-2.3,7.6c0,3.2,0.8,5.7,2.3,7.5c1.5,1.8,3.6,2.7,6.3,2.7c1.2,0,2.4-0.2,3.5-0.7
		s2.3-1.2,3.6-2.2l0.9,1.6c-1,1-2.2,1.8-3.6,2.3c-1.4,0.6-2.9,0.8-4.4,0.8C226,303.6,224.1,303.1,222.5,302.1z"/>
	<path class="st0" d="M241.4,270.4h3.1v3h-3.1V270.4z M241.9,303.3v-23.5h1.9v23.5H241.9z"/>
	<path class="st0" d="M271.2,279.8v23.5h-2v-4.7c-0.7,1.6-1.7,2.9-3.2,3.7c-1.4,0.9-3.1,1.3-5.1,1.3c-2.1,0-3.9-0.5-5.5-1.5
		c-1.6-1-2.8-2.4-3.7-4.2c-0.9-1.8-1.3-4-1.3-6.4c0-2.4,0.4-4.6,1.3-6.4c0.9-1.8,2.1-3.3,3.7-4.3c1.6-1,3.4-1.5,5.5-1.5
		c2,0,3.7,0.4,5.1,1.3c1.4,0.8,2.5,2.1,3.2,3.7v-4.4H271.2z M267.1,299c1.4-1.8,2.2-4.3,2.2-7.6c0-3.3-0.7-5.8-2.2-7.6
		c-1.4-1.8-3.5-2.7-6.1-2.7s-4.7,0.9-6.2,2.7c-1.5,1.8-2.2,4.4-2.2,7.6c0,3.2,0.7,5.7,2.2,7.5c1.5,1.8,3.5,2.7,6.2,2.7
		C263.7,301.7,265.7,300.8,267.1,299z"/>
	<path class="st0" d="M317.3,303.3l-4-9.3h-18.5l-3.9,9.3h-2.1l14.4-33.4h1.9l14.4,33.4H317.3z M295.6,292.1h16.9l-8.5-19.7
		L295.6,292.1z"/>
	<path class="st0" d="M336.4,279.4l-0.1,1.8c-0.4-0.1-1-0.1-1.9-0.1c-1.7,0-3.1,0.4-4.2,1.2c-1.1,0.8-1.9,1.8-2.4,3.1
		c-0.5,1.2-0.8,2.5-0.8,3.9v14.1h-1.9v-17c0-2.4-0.1-4.6-0.4-6.5h1.9l0.3,4.4c0.6-1.6,1.6-2.9,2.9-3.7c1.3-0.8,2.9-1.3,4.6-1.3
		C335.3,279.2,336,279.3,336.4,279.4z"/>
	<path class="st0" d="M345.4,281.5v15c0,2,0.4,3.4,1.1,4.1c0.7,0.7,1.8,1.1,3.3,1.1c0.9,0,1.8-0.1,2.6-0.4v1.9
		c-0.9,0.3-1.9,0.4-2.8,0.4c-1.9,0-3.4-0.5-4.5-1.6s-1.7-2.7-1.7-4.9v-15.6h-4.7v-1.7h4.7v-6.4l2-0.8v7.2h7.1v1.7H345.4z"/>
	<path class="st0" d="M357.2,270.4h3.1v3h-3.1V270.4z M357.7,303.3v-23.5h1.9v23.5H357.7z"/>
	<path class="st0" d="M370.8,279.8h13.6v23.5h-2v-21.8h-11.6v21.8h-2v-21.8h-4.7v-1.7h4.7v-3.9c0-2.6,0.6-4.5,1.8-5.6
		c1.2-1.2,3.3-1.7,6.2-1.7h1.2v1.7h-1.2c-1.7,0-3,0.2-3.8,0.5c-0.8,0.3-1.4,0.9-1.7,1.8c-0.3,0.9-0.5,2.3-0.5,4.1V279.8z
		 M381.9,270.2h3.1v3.1h-3.1V270.2z"/>
	<path class="st0" d="M396.1,302.1c-1.6-1-2.9-2.4-3.8-4.3c-0.9-1.8-1.3-4-1.3-6.4s0.4-4.5,1.3-6.4c0.9-1.9,2.2-3.3,3.8-4.3
		c1.6-1,3.5-1.5,5.7-1.5c1.6,0,3.1,0.3,4.5,0.8s2.6,1.3,3.5,2.3l-0.9,1.7c-1.3-1-2.5-1.8-3.6-2.3c-1.1-0.5-2.3-0.7-3.5-0.7
		c-2.7,0-4.8,0.9-6.4,2.8c-1.5,1.9-2.3,4.4-2.3,7.6c0,3.2,0.8,5.7,2.3,7.5c1.5,1.8,3.6,2.7,6.3,2.7c1.2,0,2.4-0.2,3.5-0.7
		s2.3-1.2,3.6-2.2l0.9,1.6c-1,1-2.2,1.8-3.6,2.3c-1.4,0.6-2.9,0.8-4.4,0.8C399.6,303.6,397.7,303.1,396.1,302.1z"/>
	<path class="st0" d="M414.9,270.4h3.1v3h-3.1V270.4z M415.5,303.3v-23.5h1.9v23.5H415.5z"/>
	<path class="st0" d="M444.8,279.8v23.5h-2v-4.7c-0.7,1.6-1.7,2.9-3.2,3.7c-1.4,0.9-3.1,1.3-5.1,1.3c-2.1,0-3.9-0.5-5.5-1.5
		c-1.6-1-2.8-2.4-3.7-4.2c-0.9-1.8-1.3-4-1.3-6.4c0-2.4,0.4-4.6,1.3-6.4c0.9-1.8,2.1-3.3,3.7-4.3c1.6-1,3.4-1.5,5.5-1.5
		c2,0,3.7,0.4,5.1,1.3c1.4,0.8,2.5,2.1,3.2,3.7v-4.4H444.8z M440.7,299c1.4-1.8,2.2-4.3,2.2-7.6c0-3.3-0.7-5.8-2.2-7.6
		c-1.4-1.8-3.5-2.7-6.1-2.7s-4.7,0.9-6.2,2.7c-1.5,1.8-2.2,4.4-2.2,7.6c0,3.2,0.7,5.7,2.2,7.5c1.5,1.8,3.5,2.7,6.2,2.7
		C437.2,301.7,439.2,300.8,440.7,299z"/>
	<path class="st0" d="M453.1,303.3v-34.6h1.9v34.6H453.1z"/>
	<path class="st0" d="M490.8,280.8c1.6,1,2.8,2.4,3.7,4.3s1.3,4,1.3,6.4c0,2.4-0.4,4.6-1.3,6.4s-2.1,3.2-3.7,4.2s-3.4,1.5-5.5,1.5
		c-2,0-3.8-0.4-5.2-1.3c-1.4-0.9-2.5-2.2-3.1-3.9v15.1h-1.9v-27.1c0-2.4-0.1-4.6-0.4-6.5h1.9l0.4,4.8c0.7-1.7,1.7-3,3.1-4
		c1.4-0.9,3.2-1.4,5.2-1.4C487.4,279.2,489.2,279.7,490.8,280.8z M491.4,299c1.5-1.8,2.2-4.3,2.2-7.5c0-3.3-0.7-5.8-2.2-7.6
		c-1.5-1.8-3.5-2.7-6.1-2.7c-2.7,0-4.8,0.9-6.2,2.7c-1.4,1.8-2.1,4.3-2.1,7.6c0,3.3,0.7,5.8,2.1,7.6c1.4,1.8,3.5,2.7,6.1,2.7
		C487.9,301.7,490,300.8,491.4,299z"/>
	<path class="st0" d="M521.5,279.8v23.5h-2v-4.7c-0.7,1.6-1.7,2.9-3.2,3.7c-1.4,0.9-3.1,1.3-5.1,1.3c-2.1,0-3.9-0.5-5.5-1.5
		s-2.8-2.4-3.7-4.2c-0.9-1.8-1.3-4-1.3-6.4c0-2.4,0.4-4.6,1.3-6.4c0.9-1.8,2.1-3.3,3.7-4.3s3.4-1.5,5.5-1.5c2,0,3.7,0.4,5.1,1.3
		s2.5,2.1,3.2,3.7v-4.4H521.5z M517.4,299c1.4-1.8,2.2-4.3,2.2-7.6c0-3.3-0.7-5.8-2.2-7.6c-1.4-1.8-3.5-2.7-6.1-2.7
		c-2.6,0-4.7,0.9-6.2,2.7c-1.5,1.8-2.2,4.4-2.2,7.6c0,3.2,0.7,5.7,2.2,7.5c1.5,1.8,3.5,2.7,6.2,2.7C514,301.7,516,300.8,517.4,299z"
		/>
	<path class="st0" d="M541.1,279.4l-0.1,1.8c-0.4-0.1-1-0.1-1.9-0.1c-1.7,0-3.1,0.4-4.2,1.2c-1.1,0.8-1.9,1.8-2.4,3.1
		c-0.5,1.2-0.8,2.5-0.8,3.9v14.1h-1.9v-17c0-2.4-0.1-4.6-0.4-6.5h1.9l0.3,4.4c0.6-1.6,1.6-2.9,2.9-3.7c1.3-0.8,2.9-1.3,4.6-1.3
		C540,279.2,540.7,279.3,541.1,279.4z"/>
	<path class="st0" d="M564.2,279.8v23.5h-2v-4.7c-0.7,1.6-1.7,2.9-3.2,3.7c-1.4,0.9-3.1,1.3-5.1,1.3c-2.1,0-3.9-0.5-5.5-1.5
		s-2.8-2.4-3.7-4.2c-0.9-1.8-1.3-4-1.3-6.4c0-2.4,0.4-4.6,1.3-6.4c0.9-1.8,2.1-3.3,3.7-4.3s3.4-1.5,5.5-1.5c2,0,3.7,0.4,5.1,1.3
		s2.5,2.1,3.2,3.7v-4.4H564.2z M560.1,299c1.4-1.8,2.2-4.3,2.2-7.6c0-3.3-0.7-5.8-2.2-7.6c-1.4-1.8-3.5-2.7-6.1-2.7
		c-2.6,0-4.7,0.9-6.2,2.7c-1.5,1.8-2.2,4.4-2.2,7.6c0,3.2,0.7,5.7,2.2,7.5c1.5,1.8,3.5,2.7,6.2,2.7
		C556.6,301.7,558.7,300.8,560.1,299z"/>
	<path class="st0" d="M587.1,281.5v15c0,2,0.4,3.4,1.1,4.1c0.7,0.7,1.8,1.1,3.3,1.1c0.9,0,1.8-0.1,2.6-0.4v1.9
		c-0.9,0.3-1.9,0.4-2.8,0.4c-1.9,0-3.4-0.5-4.5-1.6c-1.1-1-1.7-2.7-1.7-4.9v-15.6h-4.7v-1.7h4.7v-6.4l2-0.8v7.2h7.1v1.7H587.1z"/>
	<path class="st0" d="M617.5,279.8v23.5h-1.9v-4.5c-0.8,1.5-1.8,2.7-3.3,3.5c-1.4,0.8-3,1.2-4.8,1.2c-2.7,0-4.7-0.8-6.2-2.3
		c-1.4-1.5-2.1-3.7-2.1-6.7v-14.8h1.9v14.7c0,2.5,0.5,4.3,1.5,5.5c1,1.2,2.6,1.8,4.7,1.8c2.5,0,4.5-0.8,5.9-2.3
		c1.5-1.5,2.2-3.6,2.2-6.2v-13.4H617.5z"/>
	<path class="st0" d="M624.4,300.4l0.9-1.6c1.3,1.1,2.5,1.8,3.7,2.2c1.2,0.4,2.6,0.6,4.3,0.6c2.1,0,3.7-0.4,4.8-1.1
		c1.1-0.7,1.6-1.8,1.6-3.2c0-1.1-0.4-2-1.1-2.7c-0.7-0.7-1.9-1.2-3.5-1.6l-4-0.9c-1.8-0.4-3.2-1.2-4.3-2.3c-1.1-1.1-1.6-2.4-1.6-3.9
		c0-2,0.8-3.6,2.3-4.8s3.6-1.8,6.1-1.8c1.7,0,3.2,0.3,4.6,0.8c1.4,0.5,2.5,1.3,3.4,2.3l-0.9,1.7c-1.1-1-2.2-1.7-3.3-2.2
		c-1.1-0.5-2.4-0.7-3.7-0.7c-2,0-3.5,0.4-4.6,1.2c-1.1,0.8-1.6,1.9-1.6,3.3c0,1.2,0.3,2.1,1,2.9c0.7,0.7,1.8,1.3,3.2,1.6l4,1
		c2.1,0.5,3.6,1.2,4.6,2.3s1.5,2.3,1.5,3.9c0,1.9-0.8,3.5-2.4,4.6c-1.6,1.2-3.7,1.8-6.4,1.8C629.4,303.6,626.5,302.5,624.4,300.4z"
		/>
	<path class="st0" d="M685.7,269.8h2.1l-14.4,33.4h-2l-14.3-33.4h2.1l13.3,30.9L685.7,269.8z"/>
	<path class="st0" d="M690.5,291v0.4c0,3.3,0.8,5.8,2.3,7.6c1.5,1.8,3.8,2.7,6.6,2.7c1.5,0,2.8-0.2,4.1-0.7c1.3-0.5,2.6-1.3,3.8-2.3
		l0.9,1.7c-1,1-2.3,1.8-3.9,2.4s-3.2,0.9-4.9,0.9c-3.5,0-6.2-1.1-8.2-3.2c-2-2.2-3-5.1-3-8.9c0-2.4,0.5-4.5,1.4-6.4s2.2-3.3,3.8-4.3
		c1.6-1,3.5-1.5,5.7-1.5c3,0,5.4,1,7.1,3c1.7,2,2.6,4.7,2.6,8.3v0.6H690.5z M693.4,283.2c-1.5,1.4-2.4,3.4-2.8,5.9h16.2
		c-0.2-2.6-0.9-4.6-2.3-6c-1.3-1.4-3.1-2.1-5.4-2.1C696.8,281,694.9,281.7,693.4,283.2z"/>
	<path class="st0" d="M733.9,288.2v15.1h-2v-14.9c0-2.5-0.5-4.3-1.5-5.5c-1-1.2-2.6-1.7-4.9-1.7c-2.5,0-4.6,0.8-6.1,2.3
		c-1.5,1.5-2.3,3.6-2.3,6.2v13.7h-1.9v-17c0-2.4-0.1-4.6-0.4-6.5h1.9l0.3,4.5c0.7-1.6,1.7-2.9,3.2-3.7c1.5-0.9,3.2-1.3,5.1-1.3
		C731.1,279.2,733.9,282.2,733.9,288.2z"/>
	<path class="st0" d="M744.9,281.5v15c0,2,0.4,3.4,1.1,4.1c0.7,0.7,1.8,1.1,3.3,1.1c0.9,0,1.8-0.1,2.6-0.4v1.9
		c-0.9,0.3-1.9,0.4-2.8,0.4c-1.9,0-3.4-0.5-4.5-1.6c-1.1-1-1.7-2.7-1.7-4.9v-15.6h-4.7v-1.7h4.7v-6.4l2-0.8v7.2h7.1v1.7H744.9z"/>
	<path class="st0" d="M776.4,279.8v23.5h-2v-4.7c-0.7,1.6-1.7,2.9-3.2,3.7c-1.4,0.9-3.1,1.3-5.1,1.3c-2.1,0-3.9-0.5-5.5-1.5
		s-2.8-2.4-3.7-4.2c-0.9-1.8-1.3-4-1.3-6.4c0-2.4,0.4-4.6,1.3-6.4c0.9-1.8,2.1-3.3,3.7-4.3s3.4-1.5,5.5-1.5c2,0,3.7,0.4,5.1,1.3
		s2.5,2.1,3.2,3.7v-4.4H776.4z M772.2,299c1.4-1.8,2.2-4.3,2.2-7.6c0-3.3-0.7-5.8-2.2-7.6c-1.4-1.8-3.5-2.7-6.1-2.7
		c-2.6,0-4.7,0.9-6.2,2.7c-1.5,1.8-2.2,4.4-2.2,7.6c0,3.2,0.7,5.7,2.2,7.5c1.5,1.8,3.5,2.7,6.2,2.7
		C768.8,301.7,770.8,300.8,772.2,299z"/>
	<path class="st0" d="M783.2,300.4l0.9-1.6c1.3,1.1,2.5,1.8,3.7,2.2c1.2,0.4,2.6,0.6,4.3,0.6c2.1,0,3.7-0.4,4.8-1.1
		c1.1-0.7,1.6-1.8,1.6-3.2c0-1.1-0.4-2-1.1-2.7c-0.7-0.7-1.9-1.2-3.5-1.6l-4-0.9c-1.8-0.4-3.2-1.2-4.3-2.3c-1.1-1.1-1.6-2.4-1.6-3.9
		c0-2,0.8-3.6,2.3-4.8s3.6-1.8,6.1-1.8c1.7,0,3.2,0.3,4.6,0.8c1.4,0.5,2.5,1.3,3.4,2.3l-0.9,1.7c-1.1-1-2.2-1.7-3.3-2.2
		c-1.1-0.5-2.4-0.7-3.7-0.7c-2,0-3.5,0.4-4.6,1.2c-1.1,0.8-1.6,1.9-1.6,3.3c0,1.2,0.3,2.1,1,2.9c0.7,0.7,1.8,1.3,3.2,1.6l4,1
		c2.1,0.5,3.6,1.2,4.6,2.3s1.5,2.3,1.5,3.9c0,1.9-0.8,3.5-2.4,4.6c-1.6,1.2-3.7,1.8-6.4,1.8C788.2,303.6,785.3,302.5,783.2,300.4z"
		/>
</g>
</svg>
