<?xml version="1.0" encoding="utf-8"?>
<!-- Generator: Adobe Illustrator 23.0.0, SVG Export Plug-In . SVG Version: 6.00 Build 0)  -->
<svg version="1.1" id="Layer_1" xmlns="http://www.w3.org/2000/svg" xmlns:xlink="http://www.w3.org/1999/xlink" x="0px" y="0px"
	 viewBox="0 0 1000 1000" style="enable-background:new 0 0 1000 1000;" xml:space="preserve">
<style type="text/css">
	.st0{fill:#FFFFFF;}
</style>
<g>
	<g>
		<path class="st0" d="M643.8,235.9c16.1,0,29.1,13.3,28.7,29.5c-0.4,15.8-14.2,28-30.1,28H357.5c-15.8,0-29.7-12.2-30.1-28
			c-0.4-16.2,12.6-29.5,28.8-29.5C356.2,235.9,643.8,235.9,643.8,235.9z M663.5,324.4h-327C191.4,430.2,89.8,654.6,89.8,797.1
			c0,191.7,183.7,171.2,410.2,171.2c226.6,0,410.2,20.4,410.2-171.2C910.3,654.6,808.7,430.2,663.5,324.4z M336.5,209.3h326.9
			c0,0,129.6-113,71-162.5c-58.6-49.4-188.6,55-234.4,51.3c-45.8,3.7-175.8-100.7-234.4-51.3C207,96.3,336.5,209.3,336.5,209.3z"/>
	</g>
</g>
</svg>
