<?xml version="1.0" encoding="utf-8"?>
<!-- Generator: Adobe Illustrator 23.0.0, SVG Export Plug-In . SVG Version: 6.00 Build 0)  -->
<svg version="1.1" id="Layer_1" xmlns="http://www.w3.org/2000/svg" xmlns:xlink="http://www.w3.org/1999/xlink" x="0px" y="0px"
	 viewBox="0 0 1000 1000" style="enable-background:new 0 0 1000 1000;" xml:space="preserve">
<style type="text/css">
	.st0{fill:#FFFFFF;}
</style>
<g>
	<g>
		<path class="st0" d="M378.1,480.1h-54.5c-29.9,0-54.1,24.2-54.1,54.1v380.1c0,29.9,24.2,54.1,54.1,54.1h54.5
			c29.9,0,54.1-24.2,54.1-54.1l0-380.1C432.2,504.4,408,480.1,378.1,480.1z"/>
		<path class="st0" d="M124.4,610.4H78.1c-32.2,0-58.2,26.1-58.2,58.2v241.7c0,32.2,26.1,58.2,58.2,58.2h46.3
			c32.2,0,58.2-26.1,58.2-58.2V668.6C182.6,636.5,156.5,610.4,124.4,610.4z"/>
		<path class="st0" d="M616.9,339h-54.5c-29.9,0-54.1,24.2-54.1,54.1v521.2c0,29.9,24.2,54.1,54.1,54.1h54.5
			c29.9,0,54.1-24.2,54.1-54.1V393.2C671,363.3,646.8,339,616.9,339z"/>
		<path class="st0" d="M970.2,185.5L864.7,50.2c-9.1-11.7-22.1-18.4-35.5-18.4s-26.4,6.7-35.5,18.4L688.1,185.5
			c-9.1,11.6-11.3,24.4-6.1,35c5.6,11.6,36.3,20.8,36.3,20.8l28.8,0.1v674.5c0,29,23.5,52.6,52.6,52.6h56.5
			c29.7,0,53.7-24.1,53.7-53.7V230.5h30c17.1,8.5,30.8,1.6,36.4-10C981.4,209.9,979.3,197.2,970.2,185.5z"/>
	</g>
	<g>
	</g>
	<g>
	</g>
	<g>
	</g>
	<g>
	</g>
	<g>
	</g>
	<g>
	</g>
	<g>
	</g>
	<g>
	</g>
	<g>
	</g>
	<g>
	</g>
	<g>
	</g>
	<g>
	</g>
	<g>
	</g>
	<g>
	</g>
	<g>
	</g>
</g>
</svg>
