<?xml version="1.0" encoding="utf-8"?>
<!-- Generator: Adobe Illustrator 23.0.0, SVG Export Plug-In . SVG Version: 6.00 Build 0)  -->
<svg version="1.1" id="Layer_1" xmlns="http://www.w3.org/2000/svg" xmlns:xlink="http://www.w3.org/1999/xlink" x="0px" y="0px"
	 viewBox="0 0 1000 1000" style="enable-background:new 0 0 1000 1000;" xml:space="preserve">
<style type="text/css">
	.st0{fill:#FFFFFF;}
</style>
<g>
	<g>
		<path class="st0" d="M925.6,257.7h10.2c11.7,0,22-4.7,28.9-13.3c7.2-8.9,9.9-21.1,7.3-33.4l-19.3-92.9
			c-4.8-23.2-25.5-41.3-47-41.3l-540.7,0H94.7c-21.6,0-42.2,18.1-47,41.3L28.3,211c-2.6,12.3,0.1,24.5,7.3,33.4
			c7,8.6,17.3,13.3,29,13.3l13.9,0c-10.1,53.7-20.2,107.4-30.3,161.1l-0.8,4.3C37.8,472.7,61,518.5,106.9,542v326.1
			c0,31,25.1,56.1,56.1,56.1h678c31,0,56.1-25.1,56.1-56.1v-326c45.9-23.5,69.2-69.3,59.5-118.9L925.6,257.7z M336.4,427.4
			c4.2-56.6,8.4-113.1,12.7-169.7h108.4c-0.8,56.2-1.5,112.4-2.3,168.5c-0.6,34.7-32.9,56.3-62.6,56.4c-16.4,0-32.6-6.9-43.3-18.4
			C342.7,457,335.1,444.9,336.4,427.4z M177.1,482.6l-0.7,0l-0.8,0c-15.9,0-31.1-6.8-40.6-18.1c-5.9-7-12.4-19-9.5-36l28-170.8
			h109.2L245.6,425C242,457.1,211.8,482.4,177.1,482.6z M447.1,867.1H204.6c-11.9,0-21.6-9.7-21.6-21.6V641.1
			c0-11.9,9.7-21.6,21.6-21.6h242.5c11.9,0,21.6,9.7,21.6,21.6v204.4C468.7,857.4,459,867.1,447.1,867.1z M544.9,426.3l-2.4-168.6
			h108.4c4.2,55.5,8.3,111,12.5,166.5l0.2,3.2c1.3,17.4-6.3,29.6-12.9,36.7c-10.7,11.5-26.9,18.4-43.4,18.4
			C577.8,482.5,545.5,460.9,544.9,426.3z M742.3,848H623.6c-11.9,0-21.6-9.7-21.6-21.6V660.2c0-11.9,9.7-21.6,21.6-21.6h118.7
			c11.9,0,21.6,9.7,21.6,21.6v166.3C763.9,838.4,754.2,848,742.3,848z M866.3,468c-9.6,11.4-25,18.3-41,18.3l-0.4,0
			c-35.5-0.3-66.2-26-69.9-58.4c-5.8-56.7-11.6-113.4-17.5-170.1h110l28.5,173.7C878.9,448.6,872.3,460.8,866.3,468z"/>
	</g>
	<g>
	</g>
	<g>
	</g>
	<g>
	</g>
	<g>
	</g>
	<g>
	</g>
	<g>
	</g>
	<g>
	</g>
	<g>
	</g>
	<g>
	</g>
	<g>
	</g>
	<g>
	</g>
	<g>
	</g>
	<g>
	</g>
	<g>
	</g>
	<g>
	</g>
</g>
</svg>
